<svg xmlns="http://www.w3.org/2000/svg" width="20.702" height="20.702" viewBox="0 0 20.702 20.702">
    <defs>
        <style>
            .a {
            fill: #f72823;
            }
        </style>
    </defs>
    <path class="a"
          d="M10.351,0A10.351,10.351,0,1,0,20.7,10.351,10.363,10.363,0,0,0,10.351,0Zm0,19.905a9.555,9.555,0,1,1,9.555-9.555A9.566,9.566,0,0,1,10.351,19.905Z"/>
    <path class="a" d="M25.4,10a.4.4,0,0,0-.4.4v8.758a.4.4,0,1,0,.8,0V10.4A.4.4,0,0,0,25.4,10Z"
          transform="translate(-15.047 -6.019)"/>
    <path class="a" d="M25.4,37a.4.4,0,0,0-.4.4v.8a.4.4,0,0,0,.8,0v-.8A.4.4,0,0,0,25.4,37Z"
          transform="translate(-15.047 -21.678)"/>
</svg>